<svg xmlns="http://www.w3.org/2000/svg" xmlns:xlink="http://www.w3.org/1999/xlink" width="500" zoomAndPan="magnify" viewBox="0 0 375 374.999991" height="500" preserveAspectRatio="xMidYMid meet" version="1.0"><defs><g/><clipPath id="3ce6435936"><path d="M 97.132812 182 L 155 182 L 155 240.347656 L 97.132812 240.347656 Z M 97.132812 182 " clip-rule="nonzero"/></clipPath><clipPath id="37287d149e"><path d="M 126 65.597656 L 275 65.597656 L 275 214 L 126 214 Z M 126 65.597656 " clip-rule="nonzero"/></clipPath></defs><rect x="-37.5" width="450" fill="#ffffff" y="-37.499999" height="449.999989" fill-opacity="1"/><rect x="-37.5" width="450" fill="#ffffff" y="-37.499999" height="449.999989" fill-opacity="1"/><g clip-path="url(#3ce6435936)"><path fill="#145da0" d="M 145.082031 195.097656 C 141.082031 191.105469 137.609375 186.78125 134.660156 182.214844 L 101.316406 215.554688 C 98.605469 218.269531 97.113281 221.871094 97.113281 225.710938 C 97.113281 229.539062 98.605469 233.144531 101.316406 235.859375 C 104.03125 238.570312 107.636719 240.0625 111.464844 240.0625 C 115.304688 240.0625 118.910156 238.570312 121.621094 235.859375 L 154.402344 203.078125 C 151.125 200.691406 148.007812 198.027344 145.082031 195.097656 Z M 116.40625 229.257812 C 113.539062 232.121094 108.902344 232.121094 106.042969 229.257812 C 103.175781 226.390625 103.175781 221.753906 106.042969 218.890625 C 108.902344 216.03125 113.539062 216.023438 116.40625 218.890625 C 119.269531 221.753906 119.269531 226.398438 116.40625 229.257812 Z M 116.40625 229.257812 " fill-opacity="1" fill-rule="nonzero"/></g><path fill="#145da0" d="M 181.058594 179.894531 L 159.976562 200.980469 C 159.285156 200.515625 158.605469 200.042969 157.929688 199.550781 C 154.625 197.199219 151.492188 194.546875 148.5625 191.617188 C 144.554688 187.609375 141.113281 183.253906 138.222656 178.648438 C 137.773438 177.933594 137.332031 177.210938 136.914062 176.476562 L 158.5 154.902344 C 158.800781 155.738281 159.132812 156.566406 159.484375 157.390625 C 161.675781 162.414062 164.824219 167.132812 168.933594 171.242188 C 171.929688 174.238281 175.246094 176.726562 178.773438 178.707031 C 179.527344 179.121094 180.285156 179.519531 181.058594 179.894531 Z M 181.058594 179.894531 " fill-opacity="1" fill-rule="nonzero"/><path fill="#145da0" d="M 227.023438 133.929688 L 212.636719 148.316406 L 209.585938 148.316406 L 209.585938 151.367188 L 195.199219 165.753906 C 194.53125 165.261719 193.933594 164.679688 193.449219 164.03125 C 192.453125 162.71875 191.871094 161.113281 191.871094 159.394531 L 191.871094 148.316406 L 180.792969 148.316406 C 177.585938 148.316406 174.824219 146.308594 173.496094 143.375 C 173.109375 142.539062 172.851562 141.625 172.730469 140.664062 L 182.800781 130.59375 L 191.867188 130.59375 L 191.867188 121.527344 L 201.941406 111.453125 C 202.902344 111.574219 203.816406 111.832031 204.652344 112.21875 C 205.523438 112.613281 206.3125 113.140625 206.992188 113.765625 C 208.59375 115.238281 209.585938 117.273438 209.585938 119.523438 L 209.585938 130.59375 L 220.664062 130.59375 C 222.390625 130.59375 223.988281 131.175781 225.300781 132.179688 C 225.957031 132.664062 226.53125 133.253906 227.023438 133.929688 Z M 227.023438 133.929688 " fill-opacity="1" fill-rule="nonzero"/><path fill="#ffffff" d="M 180.792969 130.59375 C 180.230469 130.59375 179.679688 130.65625 179.148438 130.773438 C 179.148438 130.773438 179.148438 130.773438 179.140625 130.773438 L 172.992188 136.925781 C 172.773438 137.726562 172.652344 138.578125 172.652344 139.453125 C 172.652344 139.863281 172.683594 140.269531 172.730469 140.664062 C 172.851562 141.625 173.109375 142.539062 173.496094 143.375 L 186.28125 130.59375 Z M 227.023438 133.929688 C 226.53125 133.253906 225.957031 132.664062 225.300781 132.179688 L 193.449219 164.03125 C 193.933594 164.679688 194.53125 165.261719 195.199219 165.753906 C 195.882812 166.253906 196.648438 166.667969 197.476562 166.960938 L 209.585938 154.851562 L 209.585938 148.316406 L 216.125 148.316406 L 228.234375 136.207031 C 227.9375 135.378906 227.527344 134.613281 227.023438 133.929688 Z M 181.058594 179.894531 C 180.285156 179.519531 179.527344 179.121094 178.777344 178.707031 L 157.929688 199.550781 C 158.605469 200.042969 159.285156 200.515625 159.976562 200.980469 C 160.679688 201.441406 161.386719 201.890625 162.105469 202.335938 L 183.472656 180.96875 C 182.65625 180.640625 181.855469 180.28125 181.058594 179.894531 Z M 158.5 154.902344 C 158.183594 154.039062 157.894531 153.164062 157.628906 152.289062 L 135.671875 174.242188 C 136.066406 174.996094 136.480469 175.742188 136.914062 176.476562 C 137.332031 177.210938 137.773438 177.933594 138.222656 178.648438 L 159.484375 157.390625 C 159.132812 156.566406 158.800781 155.738281 158.5 154.902344 Z M 201.941406 111.453125 C 201.546875 111.40625 201.140625 111.378906 200.730469 111.378906 C 199.851562 111.378906 199.003906 111.496094 198.199219 111.714844 L 192.058594 117.855469 C 191.929688 118.398438 191.867188 118.953125 191.867188 119.523438 L 191.867188 125.003906 L 204.652344 112.21875 C 203.816406 111.832031 202.902344 111.574219 201.941406 111.453125 Z M 201.941406 111.453125 " fill-opacity="1" fill-rule="nonzero"/><g clip-path="url(#37287d149e)"><path fill="#145da0" d="M 201.941406 111.453125 C 201.546875 111.40625 201.140625 111.378906 200.730469 111.378906 C 199.851562 111.378906 199.003906 111.496094 198.199219 111.714844 C 195.101562 112.558594 192.71875 114.917969 192.058594 117.855469 C 191.929688 118.398438 191.867188 118.953125 191.867188 119.523438 L 191.867188 125.003906 L 204.652344 112.21875 C 203.816406 111.832031 202.902344 111.574219 201.941406 111.453125 Z M 228.230469 136.207031 L 216.121094 148.316406 L 220.664062 148.316406 C 225.160156 148.316406 228.800781 144.347656 228.800781 139.453125 C 228.800781 138.308594 228.605469 137.210938 228.230469 136.207031 Z M 175.035156 133.191406 C 174.09375 134.21875 173.382812 135.496094 172.992188 136.925781 L 179.140625 130.773438 C 177.550781 131.125 176.140625 131.992188 175.035156 133.191406 Z M 228.230469 136.207031 L 216.121094 148.316406 L 220.664062 148.316406 C 225.160156 148.316406 228.800781 144.347656 228.800781 139.453125 C 228.800781 138.308594 228.605469 137.210938 228.230469 136.207031 Z M 206.992188 113.765625 C 206.3125 113.140625 205.523438 112.613281 204.652344 112.21875 C 203.816406 111.832031 202.902344 111.574219 201.941406 111.453125 C 201.546875 111.40625 201.140625 111.378906 200.730469 111.378906 C 199.851562 111.378906 199.003906 111.496094 198.199219 111.714844 C 195.101562 112.558594 192.71875 114.917969 192.058594 117.855469 C 191.929688 118.398438 191.867188 118.953125 191.867188 119.523438 L 191.867188 130.59375 L 209.585938 130.59375 L 209.585938 119.523438 C 209.585938 117.273438 208.59375 115.238281 206.992188 113.765625 Z M 180.792969 130.59375 C 180.230469 130.59375 179.679688 130.65625 179.148438 130.773438 C 179.148438 130.773438 179.148438 130.773438 179.140625 130.773438 C 177.550781 131.128906 176.140625 131.992188 175.035156 133.191406 C 174.09375 134.21875 173.382812 135.496094 172.992188 136.925781 C 172.773438 137.726562 172.652344 138.578125 172.652344 139.453125 C 172.652344 139.863281 172.683594 140.269531 172.730469 140.664062 C 172.851562 141.625 173.109375 142.539062 173.496094 143.375 C 174.824219 146.308594 177.585938 148.316406 180.792969 148.316406 L 191.871094 148.316406 L 191.871094 130.59375 Z M 228.230469 136.207031 C 227.9375 135.378906 227.53125 134.613281 227.023438 133.929688 L 212.636719 148.316406 L 220.664062 148.316406 C 225.160156 148.316406 228.800781 144.347656 228.800781 139.453125 C 228.800781 138.308594 228.605469 137.210938 228.230469 136.207031 Z M 220.664062 130.59375 L 209.585938 130.59375 L 209.585938 147.894531 L 225.300781 132.179688 C 223.988281 131.175781 222.390625 130.59375 220.664062 130.59375 Z M 206.992188 113.765625 C 206.3125 113.140625 205.523438 112.613281 204.652344 112.21875 C 203.816406 111.832031 202.902344 111.574219 201.941406 111.453125 C 201.546875 111.40625 201.140625 111.378906 200.730469 111.378906 C 199.851562 111.378906 199.003906 111.496094 198.199219 111.714844 C 195.101562 112.558594 192.71875 114.917969 192.058594 117.855469 C 191.929688 118.398438 191.867188 118.953125 191.867188 119.523438 L 191.867188 130.59375 L 209.585938 130.59375 L 209.585938 119.523438 C 209.585938 117.273438 208.59375 115.238281 206.992188 113.765625 Z M 180.792969 130.59375 C 180.230469 130.59375 179.679688 130.65625 179.148438 130.773438 C 179.148438 130.773438 179.148438 130.773438 179.140625 130.773438 C 177.550781 131.128906 176.140625 131.992188 175.035156 133.191406 C 174.09375 134.21875 173.382812 135.496094 172.992188 136.925781 C 172.773438 137.726562 172.652344 138.578125 172.652344 139.453125 C 172.652344 139.863281 172.683594 140.269531 172.730469 140.664062 C 172.851562 141.625 173.109375 142.539062 173.496094 143.375 C 174.824219 146.308594 177.585938 148.316406 180.792969 148.316406 L 191.871094 148.316406 L 191.871094 130.59375 Z M 228.230469 136.207031 C 227.9375 135.378906 227.53125 134.613281 227.023438 133.929688 C 226.53125 133.253906 225.957031 132.664062 225.300781 132.179688 C 223.988281 131.175781 222.390625 130.59375 220.664062 130.59375 L 209.585938 130.59375 L 209.585938 119.523438 C 209.585938 117.273438 208.59375 115.238281 206.992188 113.765625 C 206.3125 113.140625 205.523438 112.613281 204.652344 112.21875 C 203.816406 111.832031 202.902344 111.574219 201.941406 111.453125 C 201.546875 111.40625 201.140625 111.378906 200.730469 111.378906 C 199.851562 111.378906 199.003906 111.496094 198.199219 111.714844 C 195.101562 112.558594 192.71875 114.917969 192.058594 117.855469 C 191.929688 118.398438 191.867188 118.953125 191.867188 119.523438 L 191.867188 130.59375 L 180.792969 130.59375 C 180.230469 130.59375 179.679688 130.65625 179.148438 130.773438 C 179.148438 130.773438 179.148438 130.773438 179.140625 130.773438 C 177.550781 131.125 176.140625 131.992188 175.035156 133.191406 C 174.09375 134.21875 173.382812 135.496094 172.992188 136.925781 C 172.773438 137.726562 172.652344 138.574219 172.652344 139.453125 C 172.652344 139.863281 172.683594 140.269531 172.730469 140.664062 C 172.851562 141.625 173.109375 142.539062 173.496094 143.375 C 174.824219 146.304688 177.585938 148.316406 180.792969 148.316406 L 191.871094 148.316406 L 191.871094 159.394531 C 191.871094 161.117188 192.453125 162.71875 193.449219 164.03125 C 193.933594 164.679688 194.53125 165.261719 195.199219 165.753906 C 195.882812 166.253906 196.648438 166.667969 197.476562 166.964844 C 198.484375 167.328125 199.578125 167.53125 200.730469 167.53125 C 205.621094 167.53125 209.585938 163.890625 209.585938 159.394531 L 209.585938 148.316406 L 220.664062 148.316406 C 225.160156 148.316406 228.800781 144.347656 228.800781 139.457031 C 228.800781 138.308594 228.605469 137.210938 228.230469 136.207031 Z M 228.230469 136.207031 C 227.9375 135.378906 227.53125 134.613281 227.023438 133.929688 C 226.53125 133.253906 225.957031 132.664062 225.300781 132.179688 C 223.988281 131.175781 222.390625 130.59375 220.664062 130.59375 L 209.585938 130.59375 L 209.585938 119.523438 C 209.585938 117.273438 208.59375 115.238281 206.992188 113.765625 C 206.3125 113.140625 205.523438 112.613281 204.652344 112.21875 C 203.816406 111.832031 202.902344 111.574219 201.941406 111.453125 C 201.546875 111.40625 201.140625 111.378906 200.730469 111.378906 C 199.851562 111.378906 199.003906 111.496094 198.199219 111.714844 C 195.101562 112.558594 192.71875 114.917969 192.058594 117.855469 C 191.929688 118.398438 191.867188 118.953125 191.867188 119.523438 L 191.867188 130.59375 L 180.792969 130.59375 C 180.230469 130.59375 179.679688 130.65625 179.148438 130.773438 C 179.148438 130.773438 179.148438 130.773438 179.140625 130.773438 C 177.550781 131.125 176.140625 131.992188 175.035156 133.191406 C 174.09375 134.21875 173.382812 135.496094 172.992188 136.925781 C 172.773438 137.726562 172.652344 138.574219 172.652344 139.453125 C 172.652344 139.863281 172.683594 140.269531 172.730469 140.664062 C 172.851562 141.625 173.109375 142.539062 173.496094 143.375 C 174.824219 146.304688 177.585938 148.316406 180.792969 148.316406 L 191.871094 148.316406 L 191.871094 159.394531 C 191.871094 161.117188 192.453125 162.71875 193.449219 164.03125 C 193.933594 164.679688 194.53125 165.261719 195.199219 165.753906 C 195.882812 166.253906 196.648438 166.667969 197.476562 166.964844 C 198.484375 167.328125 199.578125 167.53125 200.730469 167.53125 C 205.621094 167.53125 209.585938 163.890625 209.585938 159.394531 L 209.585938 148.316406 L 220.664062 148.316406 C 225.160156 148.316406 228.800781 144.347656 228.800781 139.457031 C 228.800781 138.308594 228.605469 137.210938 228.230469 136.207031 Z M 228.230469 136.207031 C 227.9375 135.378906 227.53125 134.613281 227.023438 133.929688 C 226.53125 133.253906 225.957031 132.664062 225.300781 132.179688 C 223.988281 131.175781 222.390625 130.59375 220.664062 130.59375 L 209.585938 130.59375 L 209.585938 119.523438 C 209.585938 117.273438 208.59375 115.238281 206.992188 113.765625 C 206.3125 113.140625 205.523438 112.613281 204.652344 112.21875 C 203.816406 111.832031 202.902344 111.574219 201.941406 111.453125 C 201.546875 111.40625 201.140625 111.378906 200.730469 111.378906 C 199.851562 111.378906 199.003906 111.496094 198.199219 111.714844 C 195.101562 112.558594 192.71875 114.917969 192.058594 117.855469 C 191.929688 118.398438 191.867188 118.953125 191.867188 119.523438 L 191.867188 130.59375 L 180.792969 130.59375 C 180.230469 130.59375 179.679688 130.65625 179.148438 130.773438 C 179.148438 130.773438 179.148438 130.773438 179.140625 130.773438 C 177.550781 131.125 176.140625 131.992188 175.035156 133.191406 C 174.09375 134.21875 173.382812 135.496094 172.992188 136.925781 C 172.773438 137.726562 172.652344 138.574219 172.652344 139.453125 C 172.652344 139.863281 172.683594 140.269531 172.730469 140.664062 C 172.851562 141.625 173.109375 142.539062 173.496094 143.375 C 174.824219 146.304688 177.585938 148.316406 180.792969 148.316406 L 191.871094 148.316406 L 191.871094 159.394531 C 191.871094 161.117188 192.453125 162.71875 193.449219 164.03125 C 193.933594 164.679688 194.53125 165.261719 195.199219 165.753906 C 195.882812 166.253906 196.648438 166.667969 197.476562 166.964844 C 198.484375 167.328125 199.578125 167.53125 200.730469 167.53125 C 205.621094 167.53125 209.585938 163.890625 209.585938 159.394531 L 209.585938 148.316406 L 220.664062 148.316406 C 225.160156 148.316406 228.800781 144.347656 228.800781 139.457031 C 228.800781 138.308594 228.605469 137.210938 228.230469 136.207031 Z M 228.230469 136.207031 C 227.9375 135.378906 227.53125 134.613281 227.023438 133.929688 C 226.53125 133.253906 225.957031 132.664062 225.300781 132.179688 C 223.988281 131.175781 222.390625 130.59375 220.664062 130.59375 L 209.585938 130.59375 L 209.585938 119.523438 C 209.585938 117.273438 208.59375 115.238281 206.992188 113.765625 C 206.3125 113.140625 205.523438 112.613281 204.652344 112.21875 C 203.816406 111.832031 202.902344 111.574219 201.941406 111.453125 C 201.546875 111.40625 201.140625 111.378906 200.730469 111.378906 C 199.851562 111.378906 199.003906 111.496094 198.199219 111.714844 C 195.101562 112.558594 192.71875 114.917969 192.058594 117.855469 C 191.929688 118.398438 191.867188 118.953125 191.867188 119.523438 L 191.867188 130.59375 L 180.792969 130.59375 C 180.230469 130.59375 179.679688 130.65625 179.148438 130.773438 C 179.148438 130.773438 179.148438 130.773438 179.140625 130.773438 C 177.550781 131.125 176.140625 131.992188 175.035156 133.191406 C 174.09375 134.21875 173.382812 135.496094 172.992188 136.925781 C 172.773438 137.726562 172.652344 138.574219 172.652344 139.453125 C 172.652344 139.863281 172.683594 140.269531 172.730469 140.664062 C 172.851562 141.625 173.109375 142.539062 173.496094 143.375 C 174.824219 146.304688 177.585938 148.316406 180.792969 148.316406 L 191.871094 148.316406 L 191.871094 159.394531 C 191.871094 161.117188 192.453125 162.71875 193.449219 164.03125 C 193.933594 164.679688 194.53125 165.261719 195.199219 165.753906 C 195.882812 166.253906 196.648438 166.667969 197.476562 166.964844 C 198.484375 167.328125 199.578125 167.53125 200.730469 167.53125 C 205.621094 167.53125 209.585938 163.890625 209.585938 159.394531 L 209.585938 148.316406 L 220.664062 148.316406 C 225.160156 148.316406 228.800781 144.347656 228.800781 139.457031 C 228.800781 138.308594 228.605469 137.210938 228.230469 136.207031 Z M 228.230469 136.207031 C 227.9375 135.378906 227.53125 134.613281 227.023438 133.929688 C 226.53125 133.253906 225.957031 132.664062 225.300781 132.179688 C 223.988281 131.175781 222.390625 130.59375 220.664062 130.59375 L 209.585938 130.59375 L 209.585938 119.523438 C 209.585938 117.273438 208.59375 115.238281 206.992188 113.765625 C 206.3125 113.140625 205.523438 112.613281 204.652344 112.21875 C 203.816406 111.832031 202.902344 111.574219 201.941406 111.453125 C 201.546875 111.40625 201.140625 111.378906 200.730469 111.378906 C 199.851562 111.378906 199.003906 111.496094 198.199219 111.714844 C 195.101562 112.558594 192.71875 114.917969 192.058594 117.855469 C 191.929688 118.398438 191.867188 118.953125 191.867188 119.523438 L 191.867188 130.59375 L 180.792969 130.59375 C 180.230469 130.59375 179.679688 130.65625 179.148438 130.773438 C 179.148438 130.773438 179.148438 130.773438 179.140625 130.773438 C 177.550781 131.125 176.140625 131.992188 175.035156 133.191406 C 174.09375 134.21875 173.382812 135.496094 172.992188 136.925781 C 172.773438 137.726562 172.652344 138.574219 172.652344 139.453125 C 172.652344 139.863281 172.683594 140.269531 172.730469 140.664062 C 172.851562 141.625 173.109375 142.539062 173.496094 143.375 C 174.824219 146.304688 177.585938 148.316406 180.792969 148.316406 L 191.871094 148.316406 L 191.871094 159.394531 C 191.871094 161.117188 192.453125 162.71875 193.449219 164.03125 C 193.933594 164.679688 194.53125 165.261719 195.199219 165.753906 C 195.882812 166.253906 196.648438 166.667969 197.476562 166.964844 C 198.484375 167.328125 199.578125 167.53125 200.730469 167.53125 C 205.621094 167.53125 209.585938 163.890625 209.585938 159.394531 L 209.585938 148.316406 L 220.664062 148.316406 C 225.160156 148.316406 228.800781 144.347656 228.800781 139.457031 C 228.800781 138.308594 228.605469 137.210938 228.230469 136.207031 Z M 228.230469 136.207031 C 227.9375 135.378906 227.53125 134.613281 227.023438 133.929688 C 226.53125 133.253906 225.957031 132.664062 225.300781 132.179688 C 223.988281 131.175781 222.390625 130.59375 220.664062 130.59375 L 209.585938 130.59375 L 209.585938 119.523438 C 209.585938 117.273438 208.59375 115.238281 206.992188 113.765625 C 206.3125 113.140625 205.523438 112.613281 204.652344 112.21875 C 203.816406 111.832031 202.902344 111.574219 201.941406 111.453125 C 201.546875 111.40625 201.140625 111.378906 200.730469 111.378906 C 199.851562 111.378906 199.003906 111.496094 198.199219 111.714844 C 195.101562 112.558594 192.71875 114.917969 192.058594 117.855469 C 191.929688 118.398438 191.867188 118.953125 191.867188 119.523438 L 191.867188 130.59375 L 180.792969 130.59375 C 180.230469 130.59375 179.679688 130.65625 179.148438 130.773438 C 179.148438 130.773438 179.148438 130.773438 179.140625 130.773438 C 177.550781 131.125 176.140625 131.992188 175.035156 133.191406 C 174.09375 134.21875 173.382812 135.496094 172.992188 136.925781 C 172.773438 137.726562 172.652344 138.574219 172.652344 139.453125 C 172.652344 139.863281 172.683594 140.269531 172.730469 140.664062 C 172.851562 141.625 173.109375 142.539062 173.496094 143.375 C 174.824219 146.304688 177.585938 148.316406 180.792969 148.316406 L 191.871094 148.316406 L 191.871094 159.394531 C 191.871094 161.117188 192.453125 162.71875 193.449219 164.03125 C 193.933594 164.679688 194.53125 165.261719 195.199219 165.753906 C 195.882812 166.253906 196.648438 166.667969 197.476562 166.964844 C 198.484375 167.328125 199.578125 167.53125 200.730469 167.53125 C 205.621094 167.53125 209.585938 163.890625 209.585938 159.394531 L 209.585938 148.316406 L 220.664062 148.316406 C 225.160156 148.316406 228.800781 144.347656 228.800781 139.457031 C 228.800781 138.308594 228.605469 137.210938 228.230469 136.207031 Z M 228.230469 136.207031 C 227.9375 135.378906 227.53125 134.613281 227.023438 133.929688 C 226.53125 133.253906 225.957031 132.664062 225.300781 132.179688 C 223.988281 131.175781 222.390625 130.59375 220.664062 130.59375 L 209.585938 130.59375 L 209.585938 119.523438 C 209.585938 117.273438 208.59375 115.238281 206.992188 113.765625 C 206.3125 113.140625 205.523438 112.613281 204.652344 112.21875 C 203.816406 111.832031 202.902344 111.574219 201.941406 111.453125 C 201.546875 111.40625 201.140625 111.378906 200.730469 111.378906 C 199.851562 111.378906 199.003906 111.496094 198.199219 111.714844 C 195.101562 112.558594 192.71875 114.917969 192.058594 117.855469 C 191.929688 118.398438 191.867188 118.953125 191.867188 119.523438 L 191.867188 130.59375 L 180.792969 130.59375 C 180.230469 130.59375 179.679688 130.65625 179.148438 130.773438 C 179.148438 130.773438 179.148438 130.773438 179.140625 130.773438 C 177.550781 131.125 176.140625 131.992188 175.035156 133.191406 C 174.09375 134.21875 173.382812 135.496094 172.992188 136.925781 C 172.773438 137.726562 172.652344 138.574219 172.652344 139.453125 C 172.652344 139.863281 172.683594 140.269531 172.730469 140.664062 C 172.851562 141.625 173.109375 142.539062 173.496094 143.375 C 174.824219 146.304688 177.585938 148.316406 180.792969 148.316406 L 191.871094 148.316406 L 191.871094 159.394531 C 191.871094 161.117188 192.453125 162.71875 193.449219 164.03125 C 193.933594 164.679688 194.53125 165.261719 195.199219 165.753906 C 195.882812 166.253906 196.648438 166.667969 197.476562 166.964844 C 198.484375 167.328125 199.578125 167.53125 200.730469 167.53125 C 205.621094 167.53125 209.585938 163.890625 209.585938 159.394531 L 209.585938 148.316406 L 220.664062 148.316406 C 225.160156 148.316406 228.800781 144.347656 228.800781 139.457031 C 228.800781 138.308594 228.605469 137.210938 228.230469 136.207031 Z M 228.230469 136.207031 C 227.9375 135.378906 227.53125 134.613281 227.023438 133.929688 C 226.53125 133.253906 225.957031 132.664062 225.300781 132.179688 C 223.988281 131.175781 222.390625 130.59375 220.664062 130.59375 L 209.585938 130.59375 L 209.585938 119.523438 C 209.585938 117.273438 208.59375 115.238281 206.992188 113.765625 C 206.3125 113.140625 205.523438 112.613281 204.652344 112.21875 C 203.816406 111.832031 202.902344 111.574219 201.941406 111.453125 C 201.546875 111.40625 201.140625 111.378906 200.730469 111.378906 C 199.851562 111.378906 199.003906 111.496094 198.199219 111.714844 C 195.101562 112.558594 192.71875 114.917969 192.058594 117.855469 C 191.929688 118.398438 191.867188 118.953125 191.867188 119.523438 L 191.867188 130.59375 L 180.792969 130.59375 C 180.230469 130.59375 179.679688 130.65625 179.148438 130.773438 C 179.148438 130.773438 179.148438 130.773438 179.140625 130.773438 C 177.550781 131.125 176.140625 131.992188 175.035156 133.191406 C 174.09375 134.21875 173.382812 135.496094 172.992188 136.925781 C 172.773438 137.726562 172.652344 138.574219 172.652344 139.453125 C 172.652344 139.863281 172.683594 140.269531 172.730469 140.664062 C 172.851562 141.625 173.109375 142.539062 173.496094 143.375 C 174.824219 146.304688 177.585938 148.316406 180.792969 148.316406 L 191.871094 148.316406 L 191.871094 159.394531 C 191.871094 161.117188 192.453125 162.71875 193.449219 164.03125 C 193.933594 164.679688 194.53125 165.261719 195.199219 165.753906 C 195.882812 166.253906 196.648438 166.667969 197.476562 166.964844 C 198.484375 167.328125 199.578125 167.53125 200.730469 167.53125 C 205.621094 167.53125 209.585938 163.890625 209.585938 159.394531 L 209.585938 148.316406 L 220.664062 148.316406 C 225.160156 148.316406 228.800781 144.347656 228.800781 139.457031 C 228.800781 138.308594 228.605469 137.210938 228.230469 136.207031 Z M 228.230469 136.207031 C 227.9375 135.378906 227.53125 134.613281 227.023438 133.929688 C 226.53125 133.253906 225.957031 132.664062 225.300781 132.179688 C 223.988281 131.175781 222.390625 130.59375 220.664062 130.59375 L 209.585938 130.59375 L 209.585938 119.523438 C 209.585938 117.273438 208.59375 115.238281 206.992188 113.765625 C 206.3125 113.140625 205.523438 112.613281 204.652344 112.21875 C 203.816406 111.832031 202.902344 111.574219 201.941406 111.453125 C 201.546875 111.40625 201.140625 111.378906 200.730469 111.378906 C 199.851562 111.378906 199.003906 111.496094 198.199219 111.714844 C 195.101562 112.558594 192.71875 114.917969 192.058594 117.855469 C 191.929688 118.398438 191.867188 118.953125 191.867188 119.523438 L 191.867188 130.59375 L 180.792969 130.59375 C 180.230469 130.59375 179.679688 130.65625 179.148438 130.773438 C 179.148438 130.773438 179.148438 130.773438 179.140625 130.773438 C 177.550781 131.125 176.140625 131.992188 175.035156 133.191406 C 174.09375 134.21875 173.382812 135.496094 172.992188 136.925781 C 172.773438 137.726562 172.652344 138.574219 172.652344 139.453125 C 172.652344 139.863281 172.683594 140.269531 172.730469 140.664062 C 172.851562 141.625 173.109375 142.539062 173.496094 143.375 C 174.824219 146.304688 177.585938 148.316406 180.792969 148.316406 L 191.871094 148.316406 L 191.871094 159.394531 C 191.871094 161.117188 192.453125 162.71875 193.449219 164.03125 C 193.933594 164.679688 194.53125 165.261719 195.199219 165.753906 C 195.882812 166.253906 196.648438 166.667969 197.476562 166.964844 C 198.484375 167.328125 199.578125 167.53125 200.730469 167.53125 C 205.621094 167.53125 209.585938 163.890625 209.585938 159.394531 L 209.585938 148.316406 L 220.664062 148.316406 C 225.160156 148.316406 228.800781 144.347656 228.800781 139.457031 C 228.800781 138.308594 228.605469 137.210938 228.230469 136.207031 Z M 228.230469 136.207031 C 227.9375 135.378906 227.53125 134.613281 227.023438 133.929688 C 226.53125 133.253906 225.957031 132.664062 225.300781 132.179688 C 223.988281 131.175781 222.390625 130.59375 220.664062 130.59375 L 209.585938 130.59375 L 209.585938 119.523438 C 209.585938 117.273438 208.59375 115.238281 206.992188 113.765625 C 206.3125 113.140625 205.523438 112.613281 204.652344 112.21875 C 203.816406 111.832031 202.902344 111.574219 201.941406 111.453125 C 201.546875 111.40625 201.140625 111.378906 200.730469 111.378906 C 199.851562 111.378906 199.003906 111.496094 198.199219 111.714844 C 195.101562 112.558594 192.71875 114.917969 192.058594 117.855469 C 191.929688 118.398438 191.867188 118.953125 191.867188 119.523438 L 191.867188 130.59375 L 180.792969 130.59375 C 180.230469 130.59375 179.679688 130.65625 179.148438 130.773438 C 179.148438 130.773438 179.148438 130.773438 179.140625 130.773438 C 177.550781 131.125 176.140625 131.992188 175.035156 133.191406 C 174.09375 134.21875 173.382812 135.496094 172.992188 136.925781 C 172.773438 137.726562 172.652344 138.574219 172.652344 139.453125 C 172.652344 139.863281 172.683594 140.269531 172.730469 140.664062 C 172.851562 141.625 173.109375 142.539062 173.496094 143.375 C 174.824219 146.304688 177.585938 148.316406 180.792969 148.316406 L 191.871094 148.316406 L 191.871094 159.394531 C 191.871094 161.117188 192.453125 162.71875 193.449219 164.03125 C 193.933594 164.679688 194.53125 165.261719 195.199219 165.753906 C 195.882812 166.253906 196.648438 166.667969 197.476562 166.964844 C 198.484375 167.328125 199.578125 167.53125 200.730469 167.53125 C 205.621094 167.53125 209.585938 163.890625 209.585938 159.394531 L 209.585938 148.316406 L 220.664062 148.316406 C 225.160156 148.316406 228.800781 144.347656 228.800781 139.457031 C 228.800781 138.308594 228.605469 137.210938 228.230469 136.207031 Z M 228.230469 136.207031 C 227.9375 135.378906 227.53125 134.613281 227.023438 133.929688 C 226.53125 133.253906 225.957031 132.664062 225.300781 132.179688 C 223.988281 131.175781 222.390625 130.59375 220.664062 130.59375 L 209.585938 130.59375 L 209.585938 119.523438 C 209.585938 117.273438 208.59375 115.238281 206.992188 113.765625 C 206.3125 113.140625 205.523438 112.613281 204.652344 112.21875 C 203.816406 111.832031 202.902344 111.574219 201.941406 111.453125 C 201.546875 111.40625 201.140625 111.378906 200.730469 111.378906 C 199.851562 111.378906 199.003906 111.496094 198.199219 111.714844 C 195.101562 112.558594 192.71875 114.917969 192.058594 117.855469 C 191.929688 118.398438 191.867188 118.953125 191.867188 119.523438 L 191.867188 130.59375 L 180.792969 130.59375 C 180.230469 130.59375 179.679688 130.65625 179.148438 130.773438 C 179.148438 130.773438 179.148438 130.773438 179.140625 130.773438 C 177.550781 131.125 176.140625 131.992188 175.035156 133.191406 C 174.09375 134.21875 173.382812 135.496094 172.992188 136.925781 C 172.773438 137.726562 172.652344 138.574219 172.652344 139.453125 C 172.652344 139.863281 172.683594 140.269531 172.730469 140.664062 C 172.851562 141.625 173.109375 142.539062 173.496094 143.375 C 174.824219 146.304688 177.585938 148.316406 180.792969 148.316406 L 191.871094 148.316406 L 191.871094 159.394531 C 191.871094 161.117188 192.453125 162.71875 193.449219 164.03125 C 193.933594 164.679688 194.53125 165.261719 195.199219 165.753906 C 195.882812 166.253906 196.648438 166.667969 197.476562 166.964844 C 198.484375 167.328125 199.578125 167.53125 200.730469 167.53125 C 205.621094 167.53125 209.585938 163.890625 209.585938 159.394531 L 209.585938 148.316406 L 220.664062 148.316406 C 225.160156 148.316406 228.800781 144.347656 228.800781 139.457031 C 228.800781 138.308594 228.605469 137.210938 228.230469 136.207031 Z M 228.230469 136.207031 C 227.9375 135.378906 227.53125 134.613281 227.023438 133.929688 C 226.53125 133.253906 225.957031 132.664062 225.300781 132.179688 C 223.988281 131.175781 222.390625 130.59375 220.664062 130.59375 L 209.585938 130.59375 L 209.585938 119.523438 C 209.585938 117.273438 208.59375 115.238281 206.992188 113.765625 C 206.3125 113.140625 205.523438 112.613281 204.652344 112.21875 C 203.816406 111.832031 202.902344 111.574219 201.941406 111.453125 C 201.546875 111.40625 201.140625 111.378906 200.730469 111.378906 C 199.851562 111.378906 199.003906 111.496094 198.199219 111.714844 C 195.101562 112.558594 192.71875 114.917969 192.058594 117.855469 C 191.929688 118.398438 191.867188 118.953125 191.867188 119.523438 L 191.867188 130.59375 L 180.792969 130.59375 C 180.230469 130.59375 179.679688 130.65625 179.148438 130.773438 C 179.148438 130.773438 179.148438 130.773438 179.140625 130.773438 C 177.550781 131.125 176.140625 131.992188 175.035156 133.191406 C 174.09375 134.21875 173.382812 135.496094 172.992188 136.925781 C 172.773438 137.726562 172.652344 138.574219 172.652344 139.453125 C 172.652344 139.863281 172.683594 140.269531 172.730469 140.664062 C 172.851562 141.625 173.109375 142.539062 173.496094 143.375 C 174.824219 146.304688 177.585938 148.316406 180.792969 148.316406 L 191.871094 148.316406 L 191.871094 159.394531 C 191.871094 161.117188 192.453125 162.71875 193.449219 164.03125 C 193.933594 164.679688 194.53125 165.261719 195.199219 165.753906 C 195.882812 166.253906 196.648438 166.667969 197.476562 166.964844 C 198.484375 167.328125 199.578125 167.53125 200.730469 167.53125 C 205.621094 167.53125 209.585938 163.890625 209.585938 159.394531 L 209.585938 148.316406 L 220.664062 148.316406 C 225.160156 148.316406 228.800781 144.347656 228.800781 139.457031 C 228.800781 138.308594 228.605469 137.210938 228.230469 136.207031 Z M 272.875 124.25 C 273.375 135.90625 270.6875 147.824219 264.46875 158.660156 C 260.84375 164.980469 256.230469 170.574219 250.757812 175.289062 C 250.292969 175.691406 249.71875 175.886719 249.15625 175.886719 C 248.457031 175.886719 247.769531 175.59375 247.285156 175.027344 C 246.398438 174.003906 246.511719 172.449219 247.542969 171.558594 C 252.597656 167.207031 256.855469 162.042969 260.203125 156.207031 C 273.359375 133.285156 269.375 105.136719 252.289062 86.699219 C 252.265625 86.6875 252.253906 86.671875 252.238281 86.660156 C 238.378906 73.117188 220.121094 65.679688 200.730469 65.679688 C 181.023438 65.679688 162.496094 73.355469 148.5625 87.289062 C 125.058594 110.792969 120.765625 146.34375 135.671875 174.242188 C 136.0625 174.996094 136.480469 175.742188 136.914062 176.476562 C 137.328125 177.210938 137.773438 177.933594 138.222656 178.648438 C 141.109375 183.253906 144.554688 187.609375 148.5625 191.617188 C 151.492188 194.546875 154.625 197.199219 157.929688 199.550781 C 158.605469 200.042969 159.285156 200.515625 159.972656 200.980469 C 160.675781 201.441406 161.386719 201.890625 162.105469 202.335938 C 173.601562 209.433594 186.878906 213.230469 200.730469 213.230469 C 220.429688 213.230469 238.957031 205.554688 252.894531 191.617188 C 271.152344 173.359375 277.828125 147.824219 272.875 124.25 Z M 232.519531 171.242188 C 219.257812 184.503906 199.777344 187.746094 183.46875 180.96875 C 182.65625 180.640625 181.855469 180.28125 181.058594 179.894531 C 180.285156 179.519531 179.527344 179.121094 178.777344 178.707031 C 175.246094 176.722656 171.929688 174.238281 168.9375 171.242188 C 164.824219 167.132812 161.675781 162.414062 159.484375 157.390625 C 159.132812 156.566406 158.800781 155.738281 158.5 154.902344 C 158.183594 154.039062 157.894531 153.164062 157.628906 152.289062 C 153.089844 136.988281 156.855469 119.75 168.9375 107.667969 C 186.492188 90.109375 214.964844 90.109375 232.519531 107.667969 C 250.074219 125.222656 250.074219 153.6875 232.519531 171.242188 Z M 227.023438 133.929688 C 226.53125 133.253906 225.957031 132.664062 225.300781 132.179688 C 223.988281 131.175781 222.390625 130.59375 220.664062 130.59375 L 209.585938 130.59375 L 209.585938 119.523438 C 209.585938 117.273438 208.59375 115.238281 206.992188 113.765625 C 206.3125 113.140625 205.523438 112.613281 204.652344 112.21875 C 203.816406 111.832031 202.902344 111.574219 201.941406 111.453125 C 201.546875 111.40625 201.140625 111.378906 200.730469 111.378906 C 199.851562 111.378906 199.003906 111.496094 198.199219 111.714844 C 195.101562 112.558594 192.71875 114.917969 192.058594 117.855469 C 191.929688 118.398438 191.867188 118.953125 191.867188 119.523438 L 191.867188 130.59375 L 180.792969 130.59375 C 180.230469 130.59375 179.679688 130.65625 179.148438 130.773438 C 179.148438 130.773438 179.148438 130.773438 179.140625 130.773438 C 177.550781 131.125 176.140625 131.992188 175.035156 133.191406 C 174.09375 134.21875 173.382812 135.496094 172.992188 136.925781 C 172.773438 137.726562 172.652344 138.574219 172.652344 139.453125 C 172.652344 139.863281 172.683594 140.269531 172.730469 140.664062 C 172.851562 141.625 173.109375 142.539062 173.496094 143.375 C 174.824219 146.304688 177.585938 148.316406 180.792969 148.316406 L 191.871094 148.316406 L 191.871094 159.394531 C 191.871094 161.117188 192.453125 162.71875 193.449219 164.03125 C 193.933594 164.679688 194.53125 165.261719 195.199219 165.753906 C 195.882812 166.253906 196.648438 166.667969 197.476562 166.964844 C 198.484375 167.328125 199.578125 167.53125 200.730469 167.53125 C 205.621094 167.53125 209.585938 163.890625 209.585938 159.394531 L 209.585938 148.316406 L 220.664062 148.316406 C 225.160156 148.316406 228.800781 144.347656 228.800781 139.457031 C 228.800781 138.308594 228.605469 137.214844 228.234375 136.207031 C 227.9375 135.378906 227.527344 134.613281 227.023438 133.929688 Z M 228.230469 136.207031 C 227.9375 135.378906 227.53125 134.613281 227.023438 133.929688 C 226.53125 133.253906 225.957031 132.664062 225.300781 132.179688 C 223.988281 131.175781 222.390625 130.59375 220.664062 130.59375 L 209.585938 130.59375 L 209.585938 119.523438 C 209.585938 117.273438 208.59375 115.238281 206.992188 113.765625 C 206.3125 113.140625 205.523438 112.613281 204.652344 112.21875 C 203.816406 111.832031 202.902344 111.574219 201.941406 111.453125 C 201.546875 111.40625 201.140625 111.378906 200.730469 111.378906 C 199.851562 111.378906 199.003906 111.496094 198.199219 111.714844 C 195.101562 112.558594 192.71875 114.917969 192.058594 117.855469 C 191.929688 118.398438 191.867188 118.953125 191.867188 119.523438 L 191.867188 130.59375 L 180.792969 130.59375 C 180.230469 130.59375 179.679688 130.65625 179.148438 130.773438 C 179.148438 130.773438 179.148438 130.773438 179.140625 130.773438 C 177.550781 131.125 176.140625 131.992188 175.035156 133.191406 C 174.09375 134.21875 173.382812 135.496094 172.992188 136.925781 C 172.773438 137.726562 172.652344 138.574219 172.652344 139.453125 C 172.652344 139.863281 172.683594 140.269531 172.730469 140.664062 C 172.851562 141.625 173.109375 142.539062 173.496094 143.375 C 174.824219 146.304688 177.585938 148.316406 180.792969 148.316406 L 191.871094 148.316406 L 191.871094 159.394531 C 191.871094 161.117188 192.453125 162.71875 193.449219 164.03125 C 193.933594 164.679688 194.53125 165.261719 195.199219 165.753906 C 195.882812 166.253906 196.648438 166.667969 197.476562 166.964844 C 198.484375 167.328125 199.578125 167.53125 200.730469 167.53125 C 205.621094 167.53125 209.585938 163.890625 209.585938 159.394531 L 209.585938 148.316406 L 220.664062 148.316406 C 225.160156 148.316406 228.800781 144.347656 228.800781 139.457031 C 228.800781 138.308594 228.605469 137.210938 228.230469 136.207031 Z M 228.230469 136.207031 C 227.9375 135.378906 227.53125 134.613281 227.023438 133.929688 C 226.53125 133.253906 225.957031 132.664062 225.300781 132.179688 C 223.988281 131.175781 222.390625 130.59375 220.664062 130.59375 L 209.585938 130.59375 L 209.585938 119.523438 C 209.585938 117.273438 208.59375 115.238281 206.992188 113.765625 C 206.3125 113.140625 205.523438 112.613281 204.652344 112.21875 C 203.816406 111.832031 202.902344 111.574219 201.941406 111.453125 C 201.546875 111.40625 201.140625 111.378906 200.730469 111.378906 C 199.851562 111.378906 199.003906 111.496094 198.199219 111.714844 C 195.101562 112.558594 192.71875 114.917969 192.058594 117.855469 C 191.929688 118.398438 191.867188 118.953125 191.867188 119.523438 L 191.867188 130.59375 L 180.792969 130.59375 C 180.230469 130.59375 179.679688 130.65625 179.148438 130.773438 C 179.148438 130.773438 179.148438 130.773438 179.140625 130.773438 C 177.550781 131.125 176.140625 131.992188 175.035156 133.191406 C 174.09375 134.21875 173.382812 135.496094 172.992188 136.925781 C 172.773438 137.726562 172.652344 138.574219 172.652344 139.453125 C 172.652344 139.863281 172.683594 140.269531 172.730469 140.664062 C 172.851562 141.625 173.109375 142.539062 173.496094 143.375 C 174.824219 146.304688 177.585938 148.316406 180.792969 148.316406 L 191.871094 148.316406 L 191.871094 159.394531 C 191.871094 161.117188 192.453125 162.71875 193.449219 164.03125 C 193.933594 164.679688 194.53125 165.261719 195.199219 165.753906 C 195.882812 166.253906 196.648438 166.667969 197.476562 166.964844 C 198.484375 167.328125 199.578125 167.53125 200.730469 167.53125 C 205.621094 167.53125 209.585938 163.890625 209.585938 159.394531 L 209.585938 148.316406 L 220.664062 148.316406 C 225.160156 148.316406 228.800781 144.347656 228.800781 139.457031 C 228.800781 138.308594 228.605469 137.210938 228.230469 136.207031 Z M 228.230469 136.207031 C 227.9375 135.378906 227.53125 134.613281 227.023438 133.929688 C 226.53125 133.253906 225.957031 132.664062 225.300781 132.179688 C 223.988281 131.175781 222.390625 130.59375 220.664062 130.59375 L 209.585938 130.59375 L 209.585938 119.523438 C 209.585938 117.273438 208.59375 115.238281 206.992188 113.765625 C 206.3125 113.140625 205.523438 112.613281 204.652344 112.21875 C 203.816406 111.832031 202.902344 111.574219 201.941406 111.453125 C 201.546875 111.40625 201.140625 111.378906 200.730469 111.378906 C 199.851562 111.378906 199.003906 111.496094 198.199219 111.714844 C 195.101562 112.558594 192.71875 114.917969 192.058594 117.855469 C 191.929688 118.398438 191.867188 118.953125 191.867188 119.523438 L 191.867188 130.59375 L 180.792969 130.59375 C 180.230469 130.59375 179.679688 130.65625 179.148438 130.773438 C 179.148438 130.773438 179.148438 130.773438 179.140625 130.773438 C 177.550781 131.125 176.140625 131.992188 175.035156 133.191406 C 174.09375 134.21875 173.382812 135.496094 172.992188 136.925781 C 172.773438 137.726562 172.652344 138.574219 172.652344 139.453125 C 172.652344 139.863281 172.683594 140.269531 172.730469 140.664062 C 172.851562 141.625 173.109375 142.539062 173.496094 143.375 C 174.824219 146.304688 177.585938 148.316406 180.792969 148.316406 L 191.871094 148.316406 L 191.871094 159.394531 C 191.871094 161.117188 192.453125 162.71875 193.449219 164.03125 C 193.933594 164.679688 194.53125 165.261719 195.199219 165.753906 C 195.882812 166.253906 196.648438 166.667969 197.476562 166.964844 C 198.484375 167.328125 199.578125 167.53125 200.730469 167.53125 C 205.621094 167.53125 209.585938 163.890625 209.585938 159.394531 L 209.585938 148.316406 L 220.664062 148.316406 C 225.160156 148.316406 228.800781 144.347656 228.800781 139.457031 C 228.800781 138.308594 228.605469 137.210938 228.230469 136.207031 Z M 228.230469 136.207031 C 227.9375 135.378906 227.53125 134.613281 227.023438 133.929688 C 226.53125 133.253906 225.957031 132.664062 225.300781 132.179688 C 223.988281 131.175781 222.390625 130.59375 220.664062 130.59375 L 209.585938 130.59375 L 209.585938 119.523438 C 209.585938 117.273438 208.59375 115.238281 206.992188 113.765625 C 206.3125 113.140625 205.523438 112.613281 204.652344 112.21875 C 203.816406 111.832031 202.902344 111.574219 201.941406 111.453125 C 201.546875 111.40625 201.140625 111.378906 200.730469 111.378906 C 199.851562 111.378906 199.003906 111.496094 198.199219 111.714844 C 195.101562 112.558594 192.71875 114.917969 192.058594 117.855469 C 191.929688 118.398438 191.867188 118.953125 191.867188 119.523438 L 191.867188 130.59375 L 180.792969 130.59375 C 180.230469 130.59375 179.679688 130.65625 179.148438 130.773438 C 179.148438 130.773438 179.148438 130.773438 179.140625 130.773438 C 177.550781 131.125 176.140625 131.992188 175.035156 133.191406 C 174.09375 134.21875 173.382812 135.496094 172.992188 136.925781 C 172.773438 137.726562 172.652344 138.574219 172.652344 139.453125 C 172.652344 139.863281 172.683594 140.269531 172.730469 140.664062 C 172.851562 141.625 173.109375 142.539062 173.496094 143.375 C 174.824219 146.304688 177.585938 148.316406 180.792969 148.316406 L 191.871094 148.316406 L 191.871094 159.394531 C 191.871094 161.117188 192.453125 162.71875 193.449219 164.03125 C 193.933594 164.679688 194.53125 165.261719 195.199219 165.753906 C 195.882812 166.253906 196.648438 166.667969 197.476562 166.964844 C 198.484375 167.328125 199.578125 167.53125 200.730469 167.53125 C 205.621094 167.53125 209.585938 163.890625 209.585938 159.394531 L 209.585938 148.316406 L 220.664062 148.316406 C 225.160156 148.316406 228.800781 144.347656 228.800781 139.457031 C 228.800781 138.308594 228.605469 137.210938 228.230469 136.207031 Z M 228.230469 136.207031 C 227.9375 135.378906 227.53125 134.613281 227.023438 133.929688 C 226.53125 133.253906 225.957031 132.664062 225.300781 132.179688 C 223.988281 131.175781 222.390625 130.59375 220.664062 130.59375 L 209.585938 130.59375 L 209.585938 119.523438 C 209.585938 117.273438 208.59375 115.238281 206.992188 113.765625 C 206.3125 113.140625 205.523438 112.613281 204.652344 112.21875 C 203.816406 111.832031 202.902344 111.574219 201.941406 111.453125 C 201.546875 111.40625 201.140625 111.378906 200.730469 111.378906 C 199.851562 111.378906 199.003906 111.496094 198.199219 111.714844 C 195.101562 112.558594 192.71875 114.917969 192.058594 117.855469 C 191.929688 118.398438 191.867188 118.953125 191.867188 119.523438 L 191.867188 130.59375 L 180.792969 130.59375 C 180.230469 130.59375 179.679688 130.65625 179.148438 130.773438 C 179.148438 130.773438 179.148438 130.773438 179.140625 130.773438 C 177.550781 131.125 176.140625 131.992188 175.035156 133.191406 C 174.09375 134.21875 173.382812 135.496094 172.992188 136.925781 C 172.773438 137.726562 172.652344 138.574219 172.652344 139.453125 C 172.652344 139.863281 172.683594 140.269531 172.730469 140.664062 C 172.851562 141.625 173.109375 142.539062 173.496094 143.375 C 174.824219 146.304688 177.585938 148.316406 180.792969 148.316406 L 191.871094 148.316406 L 191.871094 159.394531 C 191.871094 161.117188 192.453125 162.71875 193.449219 164.03125 C 193.933594 164.679688 194.53125 165.261719 195.199219 165.753906 C 195.882812 166.253906 196.648438 166.667969 197.476562 166.964844 C 198.484375 167.328125 199.578125 167.53125 200.730469 167.53125 C 205.621094 167.53125 209.585938 163.890625 209.585938 159.394531 L 209.585938 148.316406 L 220.664062 148.316406 C 225.160156 148.316406 228.800781 144.347656 228.800781 139.457031 C 228.800781 138.308594 228.605469 137.210938 228.230469 136.207031 Z M 228.230469 136.207031 C 227.9375 135.378906 227.53125 134.613281 227.023438 133.929688 C 226.53125 133.253906 225.957031 132.664062 225.300781 132.179688 C 223.988281 131.175781 222.390625 130.59375 220.664062 130.59375 L 209.585938 130.59375 L 209.585938 119.523438 C 209.585938 117.273438 208.59375 115.238281 206.992188 113.765625 C 206.3125 113.140625 205.523438 112.613281 204.652344 112.21875 C 203.816406 111.832031 202.902344 111.574219 201.941406 111.453125 C 201.546875 111.40625 201.140625 111.378906 200.730469 111.378906 C 199.851562 111.378906 199.003906 111.496094 198.199219 111.714844 C 195.101562 112.558594 192.71875 114.917969 192.058594 117.855469 C 191.929688 118.398438 191.867188 118.953125 191.867188 119.523438 L 191.867188 130.59375 L 180.792969 130.59375 C 180.230469 130.59375 179.679688 130.65625 179.148438 130.773438 C 179.148438 130.773438 179.148438 130.773438 179.140625 130.773438 C 177.550781 131.125 176.140625 131.992188 175.035156 133.191406 C 174.09375 134.21875 173.382812 135.496094 172.992188 136.925781 C 172.773438 137.726562 172.652344 138.574219 172.652344 139.453125 C 172.652344 139.863281 172.683594 140.269531 172.730469 140.664062 C 172.851562 141.625 173.109375 142.539062 173.496094 143.375 C 174.824219 146.304688 177.585938 148.316406 180.792969 148.316406 L 191.871094 148.316406 L 191.871094 159.394531 C 191.871094 161.117188 192.453125 162.71875 193.449219 164.03125 C 193.933594 164.679688 194.53125 165.261719 195.199219 165.753906 C 195.882812 166.253906 196.648438 166.667969 197.476562 166.964844 C 198.484375 167.328125 199.578125 167.53125 200.730469 167.53125 C 205.621094 167.53125 209.585938 163.890625 209.585938 159.394531 L 209.585938 148.316406 L 220.664062 148.316406 C 225.160156 148.316406 228.800781 144.347656 228.800781 139.457031 C 228.800781 138.308594 228.605469 137.210938 228.230469 136.207031 Z M 228.230469 136.207031 C 227.9375 135.378906 227.53125 134.613281 227.023438 133.929688 C 226.53125 133.253906 225.957031 132.664062 225.300781 132.179688 C 223.988281 131.175781 222.390625 130.59375 220.664062 130.59375 L 209.585938 130.59375 L 209.585938 119.523438 C 209.585938 117.273438 208.59375 115.238281 206.992188 113.765625 C 206.3125 113.140625 205.523438 112.613281 204.652344 112.21875 C 203.816406 111.832031 202.902344 111.574219 201.941406 111.453125 C 201.546875 111.40625 201.140625 111.378906 200.730469 111.378906 C 199.851562 111.378906 199.003906 111.496094 198.199219 111.714844 C 195.101562 112.558594 192.71875 114.917969 192.058594 117.855469 C 191.929688 118.398438 191.867188 118.953125 191.867188 119.523438 L 191.867188 130.59375 L 180.792969 130.59375 C 180.230469 130.59375 179.679688 130.65625 179.148438 130.773438 C 179.148438 130.773438 179.148438 130.773438 179.140625 130.773438 C 177.550781 131.125 176.140625 131.992188 175.035156 133.191406 C 174.09375 134.21875 173.382812 135.496094 172.992188 136.925781 C 172.773438 137.726562 172.652344 138.574219 172.652344 139.453125 C 172.652344 139.863281 172.683594 140.269531 172.730469 140.664062 C 172.851562 141.625 173.109375 142.539062 173.496094 143.375 C 174.824219 146.304688 177.585938 148.316406 180.792969 148.316406 L 191.871094 148.316406 L 191.871094 159.394531 C 191.871094 161.117188 192.453125 162.71875 193.449219 164.03125 C 193.933594 164.679688 194.53125 165.261719 195.199219 165.753906 C 195.882812 166.253906 196.648438 166.667969 197.476562 166.964844 C 198.484375 167.328125 199.578125 167.53125 200.730469 167.53125 C 205.621094 167.53125 209.585938 163.890625 209.585938 159.394531 L 209.585938 148.316406 L 220.664062 148.316406 C 225.160156 148.316406 228.800781 144.347656 228.800781 139.457031 C 228.800781 138.308594 228.605469 137.210938 228.230469 136.207031 Z M 228.230469 136.207031 C 227.9375 135.378906 227.53125 134.613281 227.023438 133.929688 C 226.53125 133.253906 225.957031 132.664062 225.300781 132.179688 C 223.988281 131.175781 222.390625 130.59375 220.664062 130.59375 L 209.585938 130.59375 L 209.585938 119.523438 C 209.585938 117.273438 208.59375 115.238281 206.992188 113.765625 C 206.3125 113.140625 205.523438 112.613281 204.652344 112.21875 C 203.816406 111.832031 202.902344 111.574219 201.941406 111.453125 C 201.546875 111.40625 201.140625 111.378906 200.730469 111.378906 C 199.851562 111.378906 199.003906 111.496094 198.199219 111.714844 C 195.101562 112.558594 192.71875 114.917969 192.058594 117.855469 C 191.929688 118.398438 191.867188 118.953125 191.867188 119.523438 L 191.867188 130.59375 L 180.792969 130.59375 C 180.230469 130.59375 179.679688 130.65625 179.148438 130.773438 C 179.148438 130.773438 179.148438 130.773438 179.140625 130.773438 C 177.550781 131.125 176.140625 131.992188 175.035156 133.191406 C 174.09375 134.21875 173.382812 135.496094 172.992188 136.925781 C 172.773438 137.726562 172.652344 138.574219 172.652344 139.453125 C 172.652344 139.863281 172.683594 140.269531 172.730469 140.664062 C 172.851562 141.625 173.109375 142.539062 173.496094 143.375 C 174.824219 146.304688 177.585938 148.316406 180.792969 148.316406 L 191.871094 148.316406 L 191.871094 159.394531 C 191.871094 161.117188 192.453125 162.71875 193.449219 164.03125 C 193.933594 164.679688 194.53125 165.261719 195.199219 165.753906 C 195.882812 166.253906 196.648438 166.667969 197.476562 166.964844 C 198.484375 167.328125 199.578125 167.53125 200.730469 167.53125 C 205.621094 167.53125 209.585938 163.890625 209.585938 159.394531 L 209.585938 148.316406 L 220.664062 148.316406 C 225.160156 148.316406 228.800781 144.347656 228.800781 139.457031 C 228.800781 138.308594 228.605469 137.210938 228.230469 136.207031 Z M 228.230469 136.207031 C 227.9375 135.378906 227.53125 134.613281 227.023438 133.929688 C 226.53125 133.253906 225.957031 132.664062 225.300781 132.179688 C 223.988281 131.175781 222.390625 130.59375 220.664062 130.59375 L 209.585938 130.59375 L 209.585938 119.523438 C 209.585938 117.273438 208.59375 115.238281 206.992188 113.765625 C 206.3125 113.140625 205.523438 112.613281 204.652344 112.21875 C 203.816406 111.832031 202.902344 111.574219 201.941406 111.453125 C 201.546875 111.40625 201.140625 111.378906 200.730469 111.378906 C 199.851562 111.378906 199.003906 111.496094 198.199219 111.714844 C 195.101562 112.558594 192.71875 114.917969 192.058594 117.855469 C 191.929688 118.398438 191.867188 118.953125 191.867188 119.523438 L 191.867188 130.59375 L 180.792969 130.59375 C 180.230469 130.59375 179.679688 130.65625 179.148438 130.773438 C 179.148438 130.773438 179.148438 130.773438 179.140625 130.773438 C 177.550781 131.125 176.140625 131.992188 175.035156 133.191406 C 174.09375 134.21875 173.382812 135.496094 172.992188 136.925781 C 172.773438 137.726562 172.652344 138.574219 172.652344 139.453125 C 172.652344 139.863281 172.683594 140.269531 172.730469 140.664062 C 172.851562 141.625 173.109375 142.539062 173.496094 143.375 C 174.824219 146.304688 177.585938 148.316406 180.792969 148.316406 L 191.871094 148.316406 L 191.871094 159.394531 C 191.871094 161.117188 192.453125 162.71875 193.449219 164.03125 C 193.933594 164.679688 194.53125 165.261719 195.199219 165.753906 C 195.882812 166.253906 196.648438 166.667969 197.476562 166.964844 C 198.484375 167.328125 199.578125 167.53125 200.730469 167.53125 C 205.621094 167.53125 209.585938 163.890625 209.585938 159.394531 L 209.585938 148.316406 L 220.664062 148.316406 C 225.160156 148.316406 228.800781 144.347656 228.800781 139.457031 C 228.800781 138.308594 228.605469 137.210938 228.230469 136.207031 Z M 228.230469 136.207031 C 227.9375 135.378906 227.53125 134.613281 227.023438 133.929688 C 226.53125 133.253906 225.957031 132.664062 225.300781 132.179688 C 223.988281 131.175781 222.390625 130.59375 220.664062 130.59375 L 209.585938 130.59375 L 209.585938 119.523438 C 209.585938 117.273438 208.59375 115.238281 206.992188 113.765625 C 206.3125 113.140625 205.523438 112.613281 204.652344 112.21875 C 203.816406 111.832031 202.902344 111.574219 201.941406 111.453125 C 201.546875 111.40625 201.140625 111.378906 200.730469 111.378906 C 199.851562 111.378906 199.003906 111.496094 198.199219 111.714844 C 195.101562 112.558594 192.71875 114.917969 192.058594 117.855469 C 191.929688 118.398438 191.867188 118.953125 191.867188 119.523438 L 191.867188 130.59375 L 180.792969 130.59375 C 180.230469 130.59375 179.679688 130.65625 179.148438 130.773438 C 179.148438 130.773438 179.148438 130.773438 179.140625 130.773438 C 177.550781 131.125 176.140625 131.992188 175.035156 133.191406 C 174.09375 134.21875 173.382812 135.496094 172.992188 136.925781 C 172.773438 137.726562 172.652344 138.574219 172.652344 139.453125 C 172.652344 139.863281 172.683594 140.269531 172.730469 140.664062 C 172.851562 141.625 173.109375 142.539062 173.496094 143.375 C 174.824219 146.304688 177.585938 148.316406 180.792969 148.316406 L 191.871094 148.316406 L 191.871094 159.394531 C 191.871094 161.117188 192.453125 162.71875 193.449219 164.03125 C 193.933594 164.679688 194.53125 165.261719 195.199219 165.753906 C 195.882812 166.253906 196.648438 166.667969 197.476562 166.964844 C 198.484375 167.328125 199.578125 167.53125 200.730469 167.53125 C 205.621094 167.53125 209.585938 163.890625 209.585938 159.394531 L 209.585938 148.316406 L 220.664062 148.316406 C 225.160156 148.316406 228.800781 144.347656 228.800781 139.457031 C 228.800781 138.308594 228.605469 137.210938 228.230469 136.207031 Z M 228.230469 136.207031 C 227.9375 135.378906 227.53125 134.613281 227.023438 133.929688 C 226.53125 133.253906 225.957031 132.664062 225.300781 132.179688 C 223.988281 131.175781 222.390625 130.59375 220.664062 130.59375 L 209.585938 130.59375 L 209.585938 119.523438 C 209.585938 117.273438 208.59375 115.238281 206.992188 113.765625 C 206.3125 113.140625 205.523438 112.613281 204.652344 112.21875 C 203.816406 111.832031 202.902344 111.574219 201.941406 111.453125 C 201.546875 111.40625 201.140625 111.378906 200.730469 111.378906 C 199.851562 111.378906 199.003906 111.496094 198.199219 111.714844 C 195.101562 112.558594 192.71875 114.917969 192.058594 117.855469 C 191.929688 118.398438 191.867188 118.953125 191.867188 119.523438 L 191.867188 130.59375 L 180.792969 130.59375 C 180.230469 130.59375 179.679688 130.65625 179.148438 130.773438 C 179.148438 130.773438 179.148438 130.773438 179.140625 130.773438 C 177.550781 131.125 176.140625 131.992188 175.035156 133.191406 C 174.09375 134.21875 173.382812 135.496094 172.992188 136.925781 C 172.773438 137.726562 172.652344 138.574219 172.652344 139.453125 C 172.652344 139.863281 172.683594 140.269531 172.730469 140.664062 C 172.851562 141.625 173.109375 142.539062 173.496094 143.375 C 174.824219 146.304688 177.585938 148.316406 180.792969 148.316406 L 191.871094 148.316406 L 191.871094 159.394531 C 191.871094 161.117188 192.453125 162.71875 193.449219 164.03125 C 193.933594 164.679688 194.53125 165.261719 195.199219 165.753906 C 195.882812 166.253906 196.648438 166.667969 197.476562 166.964844 C 198.484375 167.328125 199.578125 167.53125 200.730469 167.53125 C 205.621094 167.53125 209.585938 163.890625 209.585938 159.394531 L 209.585938 148.316406 L 220.664062 148.316406 C 225.160156 148.316406 228.800781 144.347656 228.800781 139.457031 C 228.800781 138.308594 228.605469 137.210938 228.230469 136.207031 Z M 228.230469 136.207031 C 227.9375 135.378906 227.53125 134.613281 227.023438 133.929688 C 226.53125 133.253906 225.957031 132.664062 225.300781 132.179688 C 223.988281 131.175781 222.390625 130.59375 220.664062 130.59375 L 209.585938 130.59375 L 209.585938 119.523438 C 209.585938 117.273438 208.59375 115.238281 206.992188 113.765625 C 206.3125 113.140625 205.523438 112.613281 204.652344 112.21875 C 203.816406 111.832031 202.902344 111.574219 201.941406 111.453125 C 201.546875 111.40625 201.140625 111.378906 200.730469 111.378906 C 199.851562 111.378906 199.003906 111.496094 198.199219 111.714844 C 195.101562 112.558594 192.71875 114.917969 192.058594 117.855469 C 191.929688 118.398438 191.867188 118.953125 191.867188 119.523438 L 191.867188 130.59375 L 180.792969 130.59375 C 180.230469 130.59375 179.679688 130.65625 179.148438 130.773438 C 179.148438 130.773438 179.148438 130.773438 179.140625 130.773438 C 177.550781 131.125 176.140625 131.992188 175.035156 133.191406 C 174.09375 134.21875 173.382812 135.496094 172.992188 136.925781 C 172.773438 137.726562 172.652344 138.574219 172.652344 139.453125 C 172.652344 139.863281 172.683594 140.269531 172.730469 140.664062 C 172.851562 141.625 173.109375 142.539062 173.496094 143.375 C 174.824219 146.304688 177.585938 148.316406 180.792969 148.316406 L 191.871094 148.316406 L 191.871094 159.394531 C 191.871094 161.117188 192.453125 162.71875 193.449219 164.03125 C 193.933594 164.679688 194.53125 165.261719 195.199219 165.753906 C 195.882812 166.253906 196.648438 166.667969 197.476562 166.964844 C 198.484375 167.328125 199.578125 167.53125 200.730469 167.53125 C 205.621094 167.53125 209.585938 163.890625 209.585938 159.394531 L 209.585938 148.316406 L 220.664062 148.316406 C 225.160156 148.316406 228.800781 144.347656 228.800781 139.457031 C 228.800781 138.308594 228.605469 137.210938 228.230469 136.207031 Z M 180.792969 130.59375 C 180.230469 130.59375 179.679688 130.65625 179.148438 130.773438 C 179.148438 130.773438 179.148438 130.773438 179.140625 130.773438 C 177.550781 131.128906 176.140625 131.992188 175.035156 133.191406 C 174.09375 134.21875 173.382812 135.496094 172.992188 136.925781 C 172.773438 137.726562 172.652344 138.578125 172.652344 139.453125 C 172.652344 139.863281 172.683594 140.269531 172.730469 140.664062 C 172.851562 141.625 173.109375 142.539062 173.496094 143.375 C 174.824219 146.308594 177.585938 148.316406 180.792969 148.316406 L 191.871094 148.316406 L 191.871094 130.59375 Z M 206.992188 113.765625 C 206.3125 113.140625 205.523438 112.613281 204.652344 112.21875 C 203.816406 111.832031 202.902344 111.574219 201.941406 111.453125 C 201.546875 111.40625 201.140625 111.378906 200.730469 111.378906 C 199.851562 111.378906 199.003906 111.496094 198.199219 111.714844 C 195.101562 112.558594 192.71875 114.917969 192.058594 117.855469 C 191.929688 118.398438 191.867188 118.953125 191.867188 119.523438 L 191.867188 130.59375 L 209.585938 130.59375 L 209.585938 119.523438 C 209.585938 117.273438 208.59375 115.238281 206.992188 113.765625 Z M 220.664062 130.59375 L 209.585938 130.59375 L 209.585938 147.894531 L 225.300781 132.179688 C 223.988281 131.175781 222.390625 130.59375 220.664062 130.59375 Z M 228.230469 136.207031 L 216.121094 148.316406 L 220.664062 148.316406 C 225.160156 148.316406 228.800781 144.347656 228.800781 139.453125 C 228.800781 138.308594 228.605469 137.210938 228.230469 136.207031 Z M 180.792969 130.59375 C 180.230469 130.59375 179.679688 130.65625 179.148438 130.773438 C 179.148438 130.773438 179.148438 130.773438 179.140625 130.773438 C 177.550781 131.128906 176.140625 131.992188 175.035156 133.191406 C 174.09375 134.21875 173.382812 135.496094 172.992188 136.925781 C 172.773438 137.726562 172.652344 138.578125 172.652344 139.453125 C 172.652344 139.863281 172.683594 140.269531 172.730469 140.664062 C 172.851562 141.625 173.109375 142.539062 173.496094 143.375 C 174.824219 146.308594 177.585938 148.316406 180.792969 148.316406 L 191.871094 148.316406 L 191.871094 130.59375 Z M 228.230469 136.207031 L 216.121094 148.316406 L 220.664062 148.316406 C 225.160156 148.316406 228.800781 144.347656 228.800781 139.453125 C 228.800781 138.308594 228.605469 137.210938 228.230469 136.207031 Z M 201.941406 111.453125 C 201.546875 111.40625 201.140625 111.378906 200.730469 111.378906 C 199.851562 111.378906 199.003906 111.496094 198.199219 111.714844 C 195.101562 112.558594 192.71875 114.917969 192.058594 117.855469 C 191.929688 118.398438 191.867188 118.953125 191.867188 119.523438 L 191.867188 125.003906 L 204.652344 112.21875 C 203.816406 111.832031 202.902344 111.574219 201.941406 111.453125 Z M 201.941406 111.453125 " fill-opacity="1" fill-rule="nonzero"/></g><path fill="#ffffff" d="M 228.800781 139.453125 C 228.800781 144.347656 225.160156 148.316406 220.664062 148.316406 L 209.585938 148.316406 L 209.585938 159.394531 C 209.585938 163.890625 205.621094 167.53125 200.730469 167.53125 C 199.578125 167.53125 198.480469 167.328125 197.476562 166.960938 C 196.648438 166.667969 195.882812 166.253906 195.199219 165.753906 C 194.53125 165.261719 193.933594 164.679688 193.449219 164.03125 C 192.453125 162.714844 191.867188 161.113281 191.867188 159.390625 L 191.867188 148.316406 L 180.792969 148.316406 C 177.585938 148.316406 174.824219 146.304688 173.496094 143.375 C 173.109375 142.539062 172.851562 141.625 172.730469 140.664062 C 172.679688 140.269531 172.652344 139.863281 172.652344 139.453125 C 172.652344 138.574219 172.773438 137.726562 172.988281 136.921875 C 173.382812 135.496094 174.09375 134.21875 175.035156 133.191406 C 176.140625 131.988281 177.550781 131.125 179.140625 130.773438 C 179.148438 130.773438 179.148438 130.773438 179.148438 130.773438 C 179.679688 130.652344 180.230469 130.589844 180.792969 130.589844 L 191.867188 130.589844 L 191.867188 119.523438 C 191.867188 118.953125 191.929688 118.398438 192.058594 117.855469 C 192.71875 114.917969 195.101562 112.558594 198.199219 111.714844 C 199 111.496094 199.851562 111.378906 200.730469 111.378906 C 201.136719 111.378906 201.546875 111.40625 201.9375 111.453125 C 202.902344 111.574219 203.816406 111.832031 204.652344 112.21875 C 205.523438 112.613281 206.3125 113.140625 206.992188 113.765625 C 208.59375 115.234375 209.585938 117.273438 209.585938 119.523438 L 209.585938 130.59375 L 220.660156 130.59375 C 222.390625 130.59375 223.984375 131.175781 225.300781 132.179688 C 225.953125 132.664062 226.53125 133.253906 227.023438 133.929688 C 227.527344 134.609375 227.9375 135.375 228.230469 136.207031 C 228.605469 137.210938 228.800781 138.308594 228.800781 139.453125 Z M 228.800781 139.453125 " fill-opacity="1" fill-rule="nonzero"/><path fill="#145da0" d="M 228.800781 139.453125 C 228.800781 144.347656 225.160156 148.316406 220.664062 148.316406 L 180.792969 148.316406 C 177.585938 148.316406 174.824219 146.308594 173.496094 143.375 C 173.109375 142.539062 172.851562 141.625 172.730469 140.664062 C 172.679688 140.269531 172.652344 139.863281 172.652344 139.453125 C 172.652344 138.574219 172.773438 137.726562 172.988281 136.925781 C 173.382812 135.496094 174.09375 134.21875 175.035156 133.191406 C 176.140625 131.992188 177.550781 131.125 179.140625 130.773438 C 179.148438 130.773438 179.148438 130.773438 179.148438 130.773438 C 179.679688 130.65625 180.230469 130.59375 180.792969 130.59375 L 220.660156 130.59375 C 222.390625 130.59375 223.984375 131.175781 225.300781 132.179688 C 225.953125 132.664062 226.53125 133.253906 227.023438 133.929688 C 227.527344 134.609375 227.9375 135.375 228.230469 136.207031 C 228.605469 137.210938 228.800781 138.308594 228.800781 139.453125 Z M 228.800781 139.453125 " fill-opacity="1" fill-rule="nonzero"/><path fill="#145da0" d="M 209.585938 119.523438 L 209.585938 159.394531 C 209.585938 163.890625 205.621094 167.53125 200.730469 167.53125 C 199.578125 167.53125 198.480469 167.328125 197.476562 166.960938 C 196.648438 166.667969 195.882812 166.253906 195.199219 165.753906 C 194.53125 165.261719 193.933594 164.679688 193.449219 164.03125 C 192.453125 162.714844 191.867188 161.113281 191.867188 159.390625 L 191.867188 119.523438 C 191.867188 118.953125 191.929688 118.398438 192.058594 117.855469 C 192.71875 114.917969 195.101562 112.558594 198.199219 111.714844 C 199 111.496094 199.851562 111.378906 200.730469 111.378906 C 201.140625 111.378906 201.546875 111.40625 201.941406 111.453125 C 202.902344 111.574219 203.816406 111.832031 204.652344 112.21875 C 205.523438 112.613281 206.3125 113.140625 206.992188 113.765625 C 208.59375 115.238281 209.585938 117.273438 209.585938 119.523438 Z M 209.585938 119.523438 " fill-opacity="1" fill-rule="nonzero"/><g fill="#051d40" fill-opacity="1"><g transform="translate(74.362444, 307.872394)"><g><path d="M 2.78125 0 L 2.78125 -24.390625 L 6.203125 -24.390625 L 6.203125 -2.953125 L 19.3125 -2.953125 L 19.3125 0 Z M 2.78125 0 "/></g></g></g><g fill="#051d40" fill-opacity="1"><g transform="translate(94.042495, 307.872394)"><g><path d="M 2.78125 0 L 2.78125 -24.390625 L 19.3125 -24.390625 L 19.3125 -21.4375 L 6.203125 -21.4375 L 6.203125 -14.015625 L 15.890625 -14.015625 L 15.890625 -11.0625 L 6.203125 -11.0625 L 6.203125 -2.953125 L 19.3125 -2.953125 L 19.3125 0 Z M 2.78125 0 "/></g></g></g><g fill="#051d40" fill-opacity="1"><g transform="translate(114.744894, 307.872394)"><g><path d="M 12.859375 0.4375 C 10.515625 0.4375 8.519531 -0.101562 6.875 -1.1875 C 5.238281 -2.269531 3.988281 -3.757812 3.125 -5.65625 C 2.257812 -7.5625 1.828125 -9.753906 1.828125 -12.234375 C 1.828125 -14.765625 2.296875 -16.972656 3.234375 -18.859375 C 4.171875 -20.742188 5.488281 -22.207031 7.1875 -23.25 C 8.894531 -24.300781 10.894531 -24.828125 13.1875 -24.828125 C 15.226562 -24.828125 17.066406 -24.351562 18.703125 -23.40625 C 20.347656 -22.457031 21.597656 -21.09375 22.453125 -19.3125 L 19.421875 -18.21875 C 18.890625 -19.3125 18.082031 -20.207031 17 -20.90625 C 15.914062 -21.601562 14.582031 -21.953125 13 -21.953125 C 11.5625 -21.953125 10.265625 -21.582031 9.109375 -20.84375 C 7.953125 -20.113281 7.03125 -19.023438 6.34375 -17.578125 C 5.664062 -16.128906 5.328125 -14.347656 5.328125 -12.234375 C 5.328125 -10.191406 5.648438 -8.4375 6.296875 -6.96875 C 6.941406 -5.507812 7.84375 -4.390625 9 -3.609375 C 10.15625 -2.835938 11.488281 -2.453125 13 -2.453125 C 13.800781 -2.453125 14.628906 -2.546875 15.484375 -2.734375 C 16.335938 -2.929688 17.113281 -3.265625 17.8125 -3.734375 C 18.519531 -4.210938 19.09375 -4.863281 19.53125 -5.6875 C 19.96875 -6.519531 20.1875 -7.570312 20.1875 -8.84375 L 20.1875 -9.640625 L 13.078125 -9.640625 L 13.078125 -12.59375 L 23.4375 -12.59375 L 23.4375 0 L 21.46875 0 L 20.5625 -3.0625 C 19.78125 -1.820312 18.710938 -0.925781 17.359375 -0.375 C 16.015625 0.164062 14.515625 0.4375 12.859375 0.4375 Z M 12.859375 0.4375 "/></g></g></g><g fill="#051d40" fill-opacity="1"><g transform="translate(140.668522, 307.872394)"><g><path d="M 2.40625 0 L 2.40625 -2.703125 L 5.84375 -2.703125 L 5.84375 -21.6875 L 2.40625 -21.6875 L 2.40625 -24.390625 L 12.703125 -24.390625 L 12.703125 -21.6875 L 9.28125 -21.6875 L 9.28125 -2.703125 L 12.703125 -2.703125 L 12.703125 0 Z M 2.40625 0 "/></g></g></g><g fill="#051d40" fill-opacity="1"><g transform="translate(155.784551, 307.872394)"><g><path d="M 2.78125 0 L 2.78125 -24.390625 L 12.59375 -24.390625 C 14.375 -24.390625 15.816406 -24.097656 16.921875 -23.515625 C 18.035156 -22.929688 18.851562 -22.179688 19.375 -21.265625 C 19.894531 -20.359375 20.15625 -19.378906 20.15625 -18.328125 C 20.15625 -17.359375 19.9375 -16.394531 19.5 -15.4375 C 19.0625 -14.488281 18.425781 -13.664062 17.59375 -12.96875 C 18.8125 -12.332031 19.71875 -11.472656 20.3125 -10.390625 C 20.914062 -9.304688 21.21875 -8.179688 21.21875 -7.015625 C 21.21875 -5.847656 20.914062 -4.726562 20.3125 -3.65625 C 19.71875 -2.582031 18.820312 -1.703125 17.625 -1.015625 C 16.4375 -0.335938 14.957031 0 13.1875 0 Z M 6.203125 -13.953125 L 12.96875 -13.953125 C 14.207031 -13.953125 15.132812 -14.335938 15.75 -15.109375 C 16.375 -15.890625 16.6875 -16.742188 16.6875 -17.671875 C 16.6875 -18.304688 16.546875 -18.914062 16.265625 -19.5 C 15.984375 -20.082031 15.566406 -20.5625 15.015625 -20.9375 C 14.472656 -21.3125 13.789062 -21.5 12.96875 -21.5 L 6.203125 -21.5 Z M 6.203125 -2.890625 L 13.546875 -2.890625 C 14.441406 -2.890625 15.191406 -3.09375 15.796875 -3.5 C 16.410156 -3.914062 16.875 -4.445312 17.1875 -5.09375 C 17.507812 -5.738281 17.671875 -6.414062 17.671875 -7.125 C 17.671875 -7.820312 17.519531 -8.484375 17.21875 -9.109375 C 16.914062 -9.734375 16.453125 -10.242188 15.828125 -10.640625 C 15.203125 -11.046875 14.429688 -11.25 13.515625 -11.25 L 6.203125 -11.25 Z M 6.203125 -2.890625 "/></g></g></g><g fill="#051d40" fill-opacity="1"><g transform="translate(178.385574, 307.872394)"><g><path d="M 2.78125 0 L 2.78125 -24.390625 L 10.515625 -24.390625 C 12.515625 -24.390625 14.273438 -24.210938 15.796875 -23.859375 C 17.316406 -23.503906 18.507812 -22.820312 19.375 -21.8125 C 20.238281 -20.800781 20.671875 -19.320312 20.671875 -17.375 C 20.671875 -16.28125 20.5 -15.257812 20.15625 -14.3125 C 19.8125 -13.363281 19.160156 -12.5625 18.203125 -11.90625 C 17.242188 -11.25 15.8125 -10.785156 13.90625 -10.515625 L 21.46875 0 L 17.265625 0 L 9.859375 -10.265625 L 6.203125 -10.265625 L 6.203125 0 Z M 6.203125 -13.140625 L 10.765625 -13.140625 C 11.960938 -13.140625 13.039062 -13.222656 14 -13.390625 C 14.96875 -13.566406 15.734375 -13.953125 16.296875 -14.546875 C 16.867188 -15.148438 17.15625 -16.070312 17.15625 -17.3125 C 17.15625 -18.570312 16.867188 -19.492188 16.296875 -20.078125 C 15.734375 -20.660156 14.96875 -21.039062 14 -21.21875 C 13.039062 -21.40625 11.960938 -21.5 10.765625 -21.5 L 6.203125 -21.5 Z M 6.203125 -13.140625 "/></g></g></g><g fill="#051d40" fill-opacity="1"><g transform="translate(200.950091, 307.872394)"><g><path d="M 13.25 0.4375 C 10.914062 0.4375 8.894531 -0.101562 7.1875 -1.1875 C 5.488281 -2.269531 4.171875 -3.765625 3.234375 -5.671875 C 2.296875 -7.585938 1.828125 -9.773438 1.828125 -12.234375 C 1.828125 -14.691406 2.296875 -16.863281 3.234375 -18.75 C 4.171875 -20.632812 5.488281 -22.117188 7.1875 -23.203125 C 8.894531 -24.285156 10.914062 -24.828125 13.25 -24.828125 C 15.613281 -24.828125 17.644531 -24.285156 19.34375 -23.203125 C 21.050781 -22.117188 22.375 -20.632812 23.3125 -18.75 C 24.25 -16.863281 24.71875 -14.691406 24.71875 -12.234375 C 24.71875 -9.773438 24.25 -7.585938 23.3125 -5.671875 C 22.375 -3.765625 21.050781 -2.269531 19.34375 -1.1875 C 17.644531 -0.101562 15.613281 0.4375 13.25 0.4375 Z M 13.25 -2.453125 C 14.738281 -2.453125 16.082031 -2.828125 17.28125 -3.578125 C 18.488281 -4.328125 19.445312 -5.425781 20.15625 -6.875 C 20.863281 -8.332031 21.21875 -10.117188 21.21875 -12.234375 C 21.21875 -14.328125 20.863281 -16.097656 20.15625 -17.546875 C 19.445312 -18.992188 18.488281 -20.085938 17.28125 -20.828125 C 16.082031 -21.578125 14.738281 -21.953125 13.25 -21.953125 C 11.789062 -21.953125 10.457031 -21.578125 9.25 -20.828125 C 8.050781 -20.085938 7.097656 -18.992188 6.390625 -17.546875 C 5.679688 -16.097656 5.328125 -14.328125 5.328125 -12.234375 C 5.328125 -10.117188 5.679688 -8.332031 6.390625 -6.875 C 7.097656 -5.425781 8.050781 -4.328125 9.25 -3.578125 C 10.457031 -2.828125 11.789062 -2.453125 13.25 -2.453125 Z M 13.25 -2.453125 "/></g></g></g><g fill="#051d40" fill-opacity="1"><g transform="translate(227.494434, 307.872394)"><g><path d="M 6.5 0 L 0.359375 -24.390625 L 4.125 -24.390625 L 8.875 -4.234375 L 13.328125 -24.390625 L 17.34375 -24.390625 L 21.796875 -4.234375 L 26.546875 -24.390625 L 30.3125 -24.390625 L 24.203125 0 L 20.046875 0 L 15.34375 -20.15625 L 10.625 0 Z M 6.5 0 "/></g></g></g><g fill="#051d40" fill-opacity="1"><g transform="translate(258.164645, 307.872394)"><g><path d="M 10.8125 0.4375 C 9.46875 0.4375 8.160156 0.234375 6.890625 -0.171875 C 5.628906 -0.585938 4.519531 -1.222656 3.5625 -2.078125 C 2.601562 -2.929688 1.898438 -4.015625 1.453125 -5.328125 L 4.640625 -6.28125 C 4.929688 -5.40625 5.40625 -4.679688 6.0625 -4.109375 C 6.71875 -3.535156 7.476562 -3.113281 8.34375 -2.84375 C 9.207031 -2.582031 10.078125 -2.453125 10.953125 -2.453125 C 11.929688 -2.453125 12.859375 -2.609375 13.734375 -2.921875 C 14.609375 -3.234375 15.316406 -3.710938 15.859375 -4.359375 C 16.410156 -5.003906 16.6875 -5.816406 16.6875 -6.796875 C 16.6875 -7.796875 16.320312 -8.585938 15.59375 -9.171875 C 14.863281 -9.753906 13.597656 -10.273438 11.796875 -10.734375 L 8.6875 -11.421875 C 7.570312 -11.722656 6.472656 -12.113281 5.390625 -12.59375 C 4.304688 -13.082031 3.414062 -13.773438 2.71875 -14.671875 C 2.03125 -15.578125 1.6875 -16.785156 1.6875 -18.296875 C 1.6875 -19.679688 2.113281 -20.859375 2.96875 -21.828125 C 3.832031 -22.804688 4.953125 -23.550781 6.328125 -24.0625 C 7.710938 -24.570312 9.144531 -24.828125 10.625 -24.828125 C 11.769531 -24.828125 12.894531 -24.660156 14 -24.328125 C 15.113281 -24.003906 16.113281 -23.507812 17 -22.84375 C 17.882812 -22.175781 18.582031 -21.316406 19.09375 -20.265625 L 15.953125 -19.359375 C 15.492188 -20.203125 14.742188 -20.84375 13.703125 -21.28125 C 12.671875 -21.726562 11.597656 -21.953125 10.484375 -21.953125 C 9.609375 -21.953125 8.765625 -21.8125 7.953125 -21.53125 C 7.148438 -21.25 6.492188 -20.828125 5.984375 -20.265625 C 5.472656 -19.703125 5.21875 -18.992188 5.21875 -18.140625 C 5.21875 -17.335938 5.453125 -16.691406 5.921875 -16.203125 C 6.398438 -15.722656 7.035156 -15.34375 7.828125 -15.0625 C 8.617188 -14.78125 9.488281 -14.53125 10.4375 -14.3125 L 13.109375 -13.734375 C 14.347656 -13.441406 15.515625 -13.039062 16.609375 -12.53125 C 17.710938 -12.019531 18.601562 -11.300781 19.28125 -10.375 C 19.957031 -9.445312 20.296875 -8.203125 20.296875 -6.640625 C 20.296875 -5.523438 20.03125 -4.519531 19.5 -3.625 C 18.96875 -2.738281 18.25 -2 17.34375 -1.40625 C 16.445312 -0.8125 15.429688 -0.351562 14.296875 -0.03125 C 13.160156 0.28125 12 0.4375 10.8125 0.4375 Z M 10.8125 0.4375 "/></g></g></g><g fill="#051d40" fill-opacity="1"><g transform="translate(279.925899, 307.872394)"><g><path d="M 2.78125 0 L 2.78125 -24.390625 L 19.3125 -24.390625 L 19.3125 -21.4375 L 6.203125 -21.4375 L 6.203125 -14.015625 L 15.890625 -14.015625 L 15.890625 -11.0625 L 6.203125 -11.0625 L 6.203125 -2.953125 L 19.3125 -2.953125 L 19.3125 0 Z M 2.78125 0 "/></g></g></g></svg>